<?xml version="1.0" standalone="no"?><!DOCTYPE svg PUBLIC "-//W3C//DTD SVG 1.1//EN" "http://www.w3.org/Graphics/SVG/1.1/DTD/svg11.dtd"><svg class="icon" height="512" viewBox="0 0 1024 1024" version="1.1" xmlns="http://www.w3.org/2000/svg"><path d="M819.448842 337.994993c0-178.378482-144.607617-322.999734-322.989508-322.999733-178.392117 0-322.989507 144.621252-322.989507 322.999733 0 51.517017 12.077337 100.225193 33.535659 143.441811h-0.02727l0.374966 0.702211a343.885379 343.885379 0 0 0 8.314035 15.574753l280.788708 526.289641 280.788709-526.289641a330.546791 330.546791 0 0 0 8.303808-15.574753l0.374967-0.702211h-0.023862c21.458322-43.216618 33.549294-91.921385 33.549295-143.441811z m-322.989508 205.972624c-113.771718 0-206.006711-92.200905-206.006711-205.969215s92.238402-205.996485 206.006711-205.996485c113.781944 0 205.996485 92.224767 205.996485 205.996485-0.003409 113.768309-92.214541 205.969214-205.996485 205.969215z" fill="#70D871" /></svg>